<svg xmlns="http://www.w3.org/2000/svg" width="312.3741760253906" height="313.97015380859375" viewBox="-155.237548828125 -209.42800903320312 312.3741760253906 313.97015380859375"><title>Neo4j Graph Visualization</title><desc>Created using Neo4j (http://www.neo4j.com/)</desc><g class="layer relationships"><g class="relationship" transform="translate(-13.350531481077667 -180.42801043693032) rotate(396.16786500924815)"><path class="outline" fill="#A5ABB6" stroke="none" d="M 25 0.5 L 48.02228108358095 0.5 L 48.02228108358095 -0.5 L 25 -0.5 Z M 95.81524983358095 0.5 L 118.8375309171619 0.5 L 118.8375309171619 3.5 L 125.8375309171619 0 L 118.8375309171619 -3.5 L 118.8375309171619 -0.5 L 95.81524983358095 -0.5 Z"/><text text-anchor="middle" pointer-events="none" font-size="8px" fill="#000000" x="71.91876545858095" y="3" font-family="sans-serif">Municipality</text></g><g class="relationship" transform="translate(128.13661159770515 51.68174545774821) rotate(262.1543903779416)"><path class="outline" fill="#A5ABB6" stroke="none" d="M 25 0.5 L 44.82582173593049 0.5 L 44.82582173593049 -0.5 L 25 -0.5 Z M 92.61879048593049 0.5 L 112.44461222186098 0.5 L 112.44461222186098 3.5 L 119.44461222186098 0 L 112.44461222186098 -3.5 L 112.44461222186098 -0.5 L 92.61879048593049 -0.5 Z"/><text text-anchor="middle" pointer-events="none" font-size="8px" fill="#000000" x="68.72230611093049" y="3" transform="rotate(180 68.72230611093049 0)" font-family="sans-serif">Municipality</text></g><g class="relationship" transform="translate(-109.63385493617847 -66.5703361737678) rotate(310.2194080294888)"><path class="outline" fill="#A5ABB6" stroke="none" d="M 25 0.5 L 55.824960905015715 0.5 L 55.824960905015715 -0.5 L 25 -0.5 Z M 86.28589840501571 0.5 L 117.11085931003143 0.5 L 117.11085931003143 3.5 L 124.11085931003143 0 L 117.11085931003143 -3.5 L 117.11085931003143 -0.5 L 86.28589840501571 -0.5 Z"/><text text-anchor="middle" pointer-events="none" font-size="8px" fill="#000000" x="71.05542965501571" y="3" font-family="sans-serif">School</text></g><g class="relationship" transform="translate(-126.23755603392723 75.54214313993494) rotate(276.66393599201456)"><path class="outline" fill="#A5ABB6" stroke="none" d="M 25 0.5 L 47.70167826318763 0.5 L 47.70167826318763 -0.5 L 25 -0.5 Z M 88.37745951318763 0.5 L 111.07913777637526 0.5 L 111.07913777637526 3.5 L 118.07913777637526 0 L 111.07913777637526 -3.5 L 111.07913777637526 -0.5 L 88.37745951318763 -0.5 Z"/><text text-anchor="middle" pointer-events="none" font-size="8px" fill="#000000" x="68.03956888818763" y="3" font-family="sans-serif">Programs</text></g></g><g class="layer nodes"><g class="node" aria-label="graph-node2" transform="translate(108.41931502183002,-91.41079178882792)"><circle class="outline" cx="0" cy="0" r="25" fill="#57C7E3" stroke="#23b3d7" stroke-width="2px"/><text class="caption" text-anchor="middle" pointer-events="none" x="0" y="5" font-size="10px" fill="#2A2C34" font-family="sans-serif"> New York</text></g><g class="node" aria-label="graph-node3" transform="translate(-13.350531481077667,-180.42801043693032)"><circle class="outline" cx="0" cy="0" r="25" fill="#F16667" stroke="#eb2728" stroke-width="2px"/><text class="caption" text-anchor="middle" pointer-events="none" x="0" y="5" font-size="10px" fill="#FFFFFF" font-family="sans-serif"> Ithaca</text></g><g class="node" aria-label="graph-node4" transform="translate(128.13661159770515,51.68174545774821)"><circle class="outline" cx="0" cy="0" r="25" fill="#F16667" stroke="#eb2728" stroke-width="2px"/><text class="caption" text-anchor="middle" pointer-events="none" x="0" y="5" font-size="10px" fill="#FFFFFF" font-family="sans-serif"> Bingham…</text></g><g class="node" aria-label="graph-node5" transform="translate(-109.63385493617847,-66.5703361737678)"><circle class="outline" cx="0" cy="0" r="25" fill="#F79767" stroke="#f36924" stroke-width="2px"/><text class="caption" text-anchor="middle" pointer-events="none" x="0" y="5" font-size="10px" fill="#FFFFFF" font-family="sans-serif"> Cornell</text></g><g class="node" aria-label="graph-node6" transform="translate(-126.23755603392723,75.54214313993494)"><circle class="outline" cx="0" cy="0" r="25" fill="#C990C0" stroke="#b261a5" stroke-width="2px"/><text class="caption" text-anchor="middle" pointer-events="none" x="0" y="5" font-size="10px" fill="#FFFFFF" font-family="sans-serif"> CS4320</text></g></g></svg>