<svg xmlns="http://www.w3.org/2000/svg" width="763.7568359375" height="365.0853271484375" viewBox="-158 -134.79827880859375 763.7568359375 365.0853271484375"><title>Neo4j Graph Visualization</title><desc>Created using Neo4j (http://www.neo4j.com/)</desc><g class="layer relationships"><g class="relationship" transform="translate(23.884912835966304 -64.12488253571023) rotate(488.7145933112998)"><path class="outline" fill="#A5ABB6" stroke="none" d="M 25 0.5 L 84.15910999218049 0.5 L 84.15910999218049 -0.5 L 25 -0.5 Z M 153.2841099921805 0.5 L 212.44321998436098 0.5 L 212.44321998436098 3.5 L 219.44321998436098 0 L 212.44321998436098 -3.5 L 212.44321998436098 -0.5 L 153.2841099921805 -0.5 Z"/><text text-anchor="middle" pointer-events="none" font-size="8px" fill="#000000" x="118.72160999218049" y="3" transform="rotate(180 118.72160999218049 0)" font-family="sans-serif">CONSIDERED_A</text></g><g class="relationship" transform="translate(-42.03731757806608 -90.10463547470313) rotate(471.86473999884856)"><path class="outline" fill="#A5ABB6" stroke="none" d="M 25 0.5 L 78.69203606683554 0.5 L 78.69203606683554 -0.5 L 25 -0.5 Z M 147.81703606683556 0.5 L 201.50907213367108 0.5 L 201.50907213367108 3.5 L 208.50907213367108 0 L 201.50907213367108 -3.5 L 201.50907213367108 -0.5 L 147.81703606683556 -0.5 Z"/><text text-anchor="middle" pointer-events="none" font-size="8px" fill="#000000" x="113.25453606683554" y="3" transform="rotate(180 113.25453606683554 0)" font-family="sans-serif">CONSIDERED_A</text></g><g class="relationship" transform="translate(-112.32258504549085 -105.79828571262112) rotate(454.1045104021307)"><path class="outline" fill="#A5ABB6" stroke="none" d="M 25 0.5 L 78.43900427104849 0.5 L 78.43900427104849 -0.5 L 25 -0.5 Z M 147.56400427104847 0.5 L 201.00300854209698 0.5 L 201.00300854209698 3.5 L 208.00300854209698 0 L 201.00300854209698 -3.5 L 201.00300854209698 -0.5 L 147.56400427104847 -0.5 Z"/><text text-anchor="middle" pointer-events="none" font-size="8px" fill="#000000" x="113.00150427104849" y="3" transform="rotate(180 113.00150427104849 0)" font-family="sans-serif">CONSIDERED_A</text></g><g class="relationship" transform="translate(131.42944223724496 88.50979304225685) rotate(531.6774326737789)"><path class="outline" fill="#A5ABB6" stroke="none" d="M 25 0.5 L 93.53812651180306 0.5 L 93.53812651180306 -0.5 L 25 -0.5 Z M 162.66312651180306 0.5 L 231.2012530236061 0.5 L 231.2012530236061 3.5 L 238.2012530236061 0 L 231.2012530236061 -3.5 L 231.2012530236061 -0.5 L 162.66312651180306 -0.5 Z"/><text text-anchor="middle" pointer-events="none" font-size="8px" fill="#000000" x="128.10062651180306" y="3" transform="rotate(180 128.10062651180306 0)" font-family="sans-serif">CONSIDERED_A</text></g><g class="relationship" transform="translate(72.2351345465895 -13.335336778604207) rotate(505.18457124815694)"><path class="outline" fill="#A5ABB6" stroke="none" d="M 25 0.5 L 84.49306545913775 0.5 L 84.49306545913775 -0.5 L 25 -0.5 Z M 153.61806545913777 0.5 L 213.1111309182755 0.5 L 213.1111309182755 3.5 L 220.1111309182755 0 L 213.1111309182755 -3.5 L 213.1111309182755 -0.5 L 153.61806545913777 -0.5 Z"/><text text-anchor="middle" pointer-events="none" font-size="8px" fill="#000000" x="119.05556545913775" y="3" transform="rotate(180 119.05556545913775 0)" font-family="sans-serif">CONSIDERED_A</text></g><g class="relationship" transform="translate(472.2592028198094 201.2870668233985) rotate(198.30888050511703)"><path class="outline" fill="#A5ABB6" stroke="none" d="M 25 0.5 L 145.6639472348634 0.5 L 145.6639472348634 -0.5 L 25 -0.5 Z M 206.3397284848634 0.5 L 327.0036757197268 0.5 L 327.0036757197268 3.5 L 334.0036757197268 0 L 327.0036757197268 -3.5 L 327.0036757197268 -0.5 L 206.3397284848634 -0.5 Z"/><text text-anchor="middle" pointer-events="none" font-size="8px" fill="#000000" x="176.0018378598634" y="3" transform="rotate(180 176.0018378598634 0)" font-family="sans-serif">ACCUSED_OF</text></g><g class="relationship" transform="translate(576.7568561011058 -4.207809794088334) rotate(528.238979244779)"><path class="outline" fill="#A5ABB6" stroke="none" d="M 25 0.5 L 193.6005952422739 0.5 L 193.6005952422739 -0.5 L 25 -0.5 Z M 254.2763764922739 0.5 L 422.8769717345478 0.5 L 422.8769717345478 3.5 L 429.8769717345478 0 L 422.8769717345478 -3.5 L 422.8769717345478 -0.5 L 254.2763764922739 -0.5 Z"/><text text-anchor="middle" pointer-events="none" font-size="8px" fill="#000000" x="223.9384858672739" y="3" transform="rotate(180 223.9384858672739 0)" font-family="sans-serif">ACCUSED_OF</text></g><g class="relationship" transform="translate(491.02681245397383 71.36815368444935) rotate(537.270834648908)"><path class="outline" fill="#A5ABB6" stroke="none" d="M 25 0.5 L 146.1649596765024 0.5 L 146.1649596765024 -0.5 L 25 -0.5 Z M 206.8407409265024 0.5 L 328.0057006030048 0.5 L 328.0057006030048 3.5 L 335.0057006030048 0 L 328.0057006030048 -3.5 L 328.0057006030048 -0.5 L 206.8407409265024 -0.5 Z"/><text text-anchor="middle" pointer-events="none" font-size="8px" fill="#000000" x="176.5028503015024" y="3" transform="rotate(180 176.5028503015024 0)" font-family="sans-serif">ACCUSED_OF</text></g><g class="relationship" transform="translate(423.0794746086445 -93.81194670852632) rotate(507.98890001132185)"><path class="outline" fill="#A5ABB6" stroke="none" d="M 25 0.5 L 138.13664104174907 0.5 L 138.13664104174907 -0.5 L 25 -0.5 Z M 198.81242229174907 0.5 L 311.94906333349815 0.5 L 311.94906333349815 3.5 L 318.94906333349815 0 L 311.94906333349815 -3.5 L 311.94906333349815 -0.5 L 198.81242229174907 -0.5 Z"/><text text-anchor="middle" pointer-events="none" font-size="8px" fill="#000000" x="168.47453166674907" y="3" transform="rotate(180 168.47453166674907 0)" font-family="sans-serif">ACCUSED_OF</text></g><g class="relationship" transform="translate(402.23181371891997 -13.19693707593986) rotate(519.4150528873281)"><path class="outline" fill="#A5ABB6" stroke="none" d="M 25 0.5 L 110.79801721900222 0.5 L 110.79801721900222 -0.5 L 25 -0.5 Z M 171.47379846900222 0.5 L 257.27181568800444 0.5 L 257.27181568800444 3.5 L 264.27181568800444 0 L 257.27181568800444 -3.5 L 257.27181568800444 -0.5 L 171.47379846900222 -0.5 Z"/><text text-anchor="middle" pointer-events="none" font-size="8px" fill="#000000" x="141.13590784400222" y="3" transform="rotate(180 141.13590784400222 0)" font-family="sans-serif">ACCUSED_OF</text></g><g class="relationship" transform="translate(562.2231839191592 144.74745275700408) rotate(187.43757678676184)"><path class="outline" fill="#A5ABB6" stroke="none" d="M 25 0.5 L 183.38660283884462 0.5 L 183.38660283884462 -0.5 L 25 -0.5 Z M 244.06238408884462 0.5 L 402.44898692768925 0.5 L 402.44898692768925 3.5 L 409.44898692768925 0 L 402.44898692768925 -3.5 L 402.44898692768925 -0.5 L 244.06238408884462 -0.5 Z"/><text text-anchor="middle" pointer-events="none" font-size="8px" fill="#000000" x="213.72449346384462" y="3" transform="rotate(180 213.72449346384462 0)" font-family="sans-serif">ACCUSED_OF</text></g></g><g class="layer nodes"><g class="node" aria-label="graph-node3" transform="translate(23.884912835966304,-64.12488253571023)"><circle class="outline" cx="0" cy="0" r="25" fill="#ECB5C9" stroke="#da7298" stroke-width="2px"/><text class="caption" text-anchor="middle" pointer-events="none" x="0" y="5" font-size="10px" fill="#2A2C34" font-family="sans-serif"> kidnappi…</text></g><g class="node" aria-label="graph-node5" transform="translate(-42.03731757806608,-90.10463547470313)"><circle class="outline" cx="0" cy="0" r="25" fill="#ECB5C9" stroke="#da7298" stroke-width="2px"/><text class="caption" text-anchor="middle" pointer-events="none" x="0" y="5" font-size="10px" fill="#2A2C34" font-family="sans-serif"> murder</text></g><g class="node" aria-label="graph-node7" transform="translate(-112.32258504549085,-105.79828571262112)"><circle class="outline" cx="0" cy="0" r="25" fill="#ECB5C9" stroke="#da7298" stroke-width="2px"/><text class="caption" text-anchor="middle" pointer-events="none" x="0" y="5" font-size="10px" fill="#2A2C34" font-family="sans-serif"> rape</text></g><g class="node" aria-label="graph-node18" transform="translate(131.42944223724496,88.50979304225685)"><circle class="outline" cx="0" cy="0" r="25" fill="#ECB5C9" stroke="#da7298" stroke-width="2px"/><text class="caption" text-anchor="middle" pointer-events="none" x="0" y="0" font-size="10px" fill="#2A2C34" font-family="sans-serif"> armed</text><text class="caption" text-anchor="middle" pointer-events="none" x="0" y="10" font-size="10px" fill="#2A2C34" font-family="sans-serif"> robbery</text></g><g class="node" aria-label="graph-node28" transform="translate(72.2351345465895,-13.335336778604207)"><circle class="outline" cx="0" cy="0" r="25" fill="#ECB5C9" stroke="#da7298" stroke-width="2px"/><text class="caption" text-anchor="middle" pointer-events="none" x="0" y="5" font-size="10px" fill="#2A2C34" font-family="sans-serif"> robbery</text></g><g class="node" aria-label="graph-node35" transform="translate(-129.00000000000003,126.60710540407314)"><circle class="outline" cx="0" cy="0" r="25" fill="#4C8EDA" stroke="#2870c2" stroke-width="2px"/><text class="caption" text-anchor="middle" pointer-events="none" x="0" y="0" font-size="10px" fill="#FFFFFF" font-family="sans-serif"> Serious</text><text class="caption" text-anchor="middle" pointer-events="none" x="0" y="10" font-size="10px" fill="#FFFFFF" font-family="sans-serif"> Crime</text></g><g class="node" aria-label="graph-node17" transform="translate(472.2592028198094,201.2870668233985)"><circle class="outline" cx="0" cy="0" r="25" fill="#D9C8AE" stroke="#c0a378" stroke-width="2px"/><text class="caption" text-anchor="middle" pointer-events="none" x="0" y="5" font-size="10px" fill="#2A2C34" font-family="sans-serif"> Hainduwa</text></g><g class="node" aria-label="graph-node19" transform="translate(576.7568561011058,-4.207809794088334)"><circle class="outline" cx="0" cy="0" r="25" fill="#D9C8AE" stroke="#c0a378" stroke-width="2px"/><text class="caption" text-anchor="middle" pointer-events="none" x="0" y="5" font-size="10px" fill="#2A2C34" font-family="sans-serif"> Tuhafeni</text></g><g class="node" aria-label="graph-node20" transform="translate(491.02681245397383,71.36815368444935)"><circle class="outline" cx="0" cy="0" r="25" fill="#D9C8AE" stroke="#c0a378" stroke-width="2px"/><text class="caption" text-anchor="middle" pointer-events="none" x="0" y="5" font-size="10px" fill="#2A2C34" font-family="sans-serif"> Kandjimi</text></g><g class="node" aria-label="graph-node21" transform="translate(423.0794746086445,-93.81194670852632)"><circle class="outline" cx="0" cy="0" r="25" fill="#D9C8AE" stroke="#c0a378" stroke-width="2px"/><text class="caption" text-anchor="middle" pointer-events="none" x="0" y="5" font-size="10px" fill="#2A2C34" font-family="sans-serif"> Naobeb</text></g><g class="node" aria-label="graph-node22" transform="translate(402.23181371891997,-13.19693707593986)"><circle class="outline" cx="0" cy="0" r="25" fill="#D9C8AE" stroke="#c0a378" stroke-width="2px"/><text class="caption" text-anchor="middle" pointer-events="none" x="0" y="5" font-size="10px" fill="#2A2C34" font-family="sans-serif"> Angula</text></g><g class="node" aria-label="graph-node23" transform="translate(562.2231839191592,144.74745275700408)"><circle class="outline" cx="0" cy="0" r="25" fill="#D9C8AE" stroke="#c0a378" stroke-width="2px"/><text class="caption" text-anchor="middle" pointer-events="none" x="0" y="5" font-size="10px" fill="#2A2C34" font-family="sans-serif"> Nangolo</text></g></g></svg>