<svg xmlns="http://www.w3.org/2000/svg" width="748.4973754882812" height="474.03955078125" viewBox="-524.7109375 -186.15415954589844 748.4973754882812 474.03955078125"><title>Neo4j Graph Visualization</title><desc>Created using Neo4j (http://www.neo4j.com/)</desc><g class="layer relationships"><g class="relationship" transform="translate(-91.64116954198855 258.8854057427368) rotate(249.93466319058484)"><path class="outline" fill="#A5ABB6" stroke="none" d="M 25 0.5 L 56.6283431650473 0.5 L 56.6283431650473 -0.5 L 25 -0.5 Z M 117.3041244150473 0.5 L 148.9324675800946 0.5 L 148.9324675800946 3.5 L 155.9324675800946 0 L 148.9324675800946 -3.5 L 148.9324675800946 -0.5 L 117.3041244150473 -0.5 Z"/><text text-anchor="middle" pointer-events="none" font-size="8px" fill="#000000" x="86.9662337900473" y="3" transform="rotate(180 86.9662337900473 0)" font-family="sans-serif">ACCUSED_OF</text></g><g class="relationship" transform="translate(23.124941418443115 250.0908347095589) rotate(237.6901751017221)"><path class="outline" fill="#A5ABB6" stroke="none" d="M 25 0.5 L 55.082616393749475 0.5 L 55.082616393749475 -0.5 L 25 -0.5 Z M 115.75839764374948 0.5 L 145.84101403749895 0.5 L 145.84101403749895 3.5 L 152.84101403749895 0 L 145.84101403749895 -3.5 L 145.84101403749895 -0.5 L 115.75839764374948 -0.5 Z"/><text text-anchor="middle" pointer-events="none" font-size="8px" fill="#000000" x="85.42050701874948" y="3" transform="rotate(180 85.42050701874948 0)" font-family="sans-serif">ACCUSED_OF</text></g><g class="relationship" transform="translate(173.35989213142886 128.84586628699913) rotate(202.83326352372882)"><path class="outline" fill="#A5ABB6" stroke="none" d="M 25 0.5 L 56.28703835102063 0.5 L 56.28703835102063 -0.5 L 25 -0.5 Z M 116.96281960102063 0.5 L 148.24985795204125 0.5 L 148.24985795204125 3.5 L 155.24985795204125 0 L 148.24985795204125 -3.5 L 148.24985795204125 -0.5 L 116.96281960102063 -0.5 Z"/><text text-anchor="middle" pointer-events="none" font-size="8px" fill="#000000" x="86.62492897602063" y="3" transform="rotate(180 86.62492897602063 0)" font-family="sans-serif">ACCUSED_OF</text></g><g class="relationship" transform="translate(82.55813853208842 170.284604531298) rotate(204.52920416819586)"><path class="outline" fill="#A5ABB6" stroke="none" d="M 25 0.5 L 51.06937705694878 0.5 L 51.06937705694878 -0.5 L 25 -0.5 Z M 111.74515830694878 0.5 L 137.81453536389756 0.5 L 137.81453536389756 3.5 L 144.81453536389756 0 L 137.81453536389756 -3.5 L 137.81453536389756 -0.5 L 111.74515830694878 -0.5 Z"/><text text-anchor="middle" pointer-events="none" font-size="8px" fill="#000000" x="81.40726768194878" y="3" transform="rotate(180 81.40726768194878 0)" font-family="sans-serif">ACCUSED_OF</text></g><g class="relationship" transform="translate(194.78642734460848 31.973559086591607) rotate(531.8300456518281)"><path class="outline" fill="#A5ABB6" stroke="none" d="M 25 0.5 L 60.89943784499799 0.5 L 60.89943784499799 -0.5 L 25 -0.5 Z M 121.57521909499799 0.5 L 157.47465693999598 0.5 L 157.47465693999598 3.5 L 164.47465693999598 0 L 157.47465693999598 -3.5 L 157.47465693999598 -0.5 L 121.57521909499799 -0.5 Z"/><text text-anchor="middle" pointer-events="none" font-size="8px" fill="#000000" x="91.23732846999799" y="3" transform="rotate(180 91.23732846999799 0)" font-family="sans-serif">ACCUSED_OF</text></g><g class="relationship" transform="translate(-65.9526525449996 -157.15416303568944) rotate(479.1153447806462)"><path class="outline" fill="#A5ABB6" stroke="none" d="M 25 0.5 L 59.69239650438868 0.5 L 59.69239650438868 -0.5 L 25 -0.5 Z M 120.36817775438868 0.5 L 155.06057425877736 0.5 L 155.06057425877736 3.5 L 162.06057425877736 0 L 155.06057425877736 -3.5 L 155.06057425877736 -0.5 L 120.36817775438868 -0.5 Z"/><text text-anchor="middle" pointer-events="none" font-size="8px" fill="#000000" x="90.03028712938868" y="3" transform="rotate(180 90.03028712938868 0)" font-family="sans-serif">ACCUSED_OF</text></g><g class="relationship" transform="translate(-175.94007894799253 -151.43473311159914) rotate(476.2064437191349)"><path class="outline" fill="#A5ABB6" stroke="none" d="M 25 0.5 L 38.43497412890194 0.5 L 38.43497412890194 -0.5 L 25 -0.5 Z M 99.11075537890194 0.5 L 112.54572950780388 0.5 L 112.54572950780388 3.5 L 119.54572950780388 0 L 112.54572950780388 -3.5 L 112.54572950780388 -0.5 L 99.11075537890194 -0.5 Z"/><text text-anchor="middle" pointer-events="none" font-size="8px" fill="#000000" x="68.77286475390194" y="3" transform="rotate(180 68.77286475390194 0)" font-family="sans-serif">ACCUSED_OF</text></g><g class="relationship" transform="translate(98.68677407744761 -52.42994447863239) rotate(517.8393899693674)"><path class="outline" fill="#A5ABB6" stroke="none" d="M 25 0.5 L 51.756654157751285 0.5 L 51.756654157751285 -0.5 L 25 -0.5 Z M 112.43243540775129 0.5 L 139.18908956550257 0.5 L 139.18908956550257 3.5 L 146.18908956550257 0 L 139.18908956550257 -3.5 L 139.18908956550257 -0.5 L 112.43243540775129 -0.5 Z"/><text text-anchor="middle" pointer-events="none" font-size="8px" fill="#000000" x="82.09454478275129" y="3" transform="rotate(180 82.09454478275129 0)" font-family="sans-serif">ACCUSED_OF</text></g><g class="relationship" transform="translate(41.72599291973744 -133.9912455130961) rotate(484.80434614266085)"><path class="outline" fill="#A5ABB6" stroke="none" d="M 25 0.5 L 55.14852250985393 0.5 L 55.14852250985393 -0.5 L 25 -0.5 Z M 115.82430375985393 0.5 L 145.97282626970787 0.5 L 145.97282626970787 3.5 L 152.97282626970787 0 L 145.97282626970787 -3.5 L 145.97282626970787 -0.5 L 115.82430375985393 -0.5 Z"/><text text-anchor="middle" pointer-events="none" font-size="8px" fill="#000000" x="85.48641313485393" y="3" transform="rotate(180 85.48641313485393 0)" font-family="sans-serif">ACCUSED_OF</text></g><g class="relationship" transform="translate(-460.7442535052947 -100.9434415357697) rotate(400.3135043995236)"><path class="outline" fill="#A5ABB6" stroke="none" d="M 25 0.5 L 45.70710367888101 0.5 L 45.70710367888101 -0.5 L 25 -0.5 Z M 106.38288492888101 0.5 L 127.08998860776202 0.5 L 127.08998860776202 3.5 L 134.08998860776202 0 L 127.08998860776202 -3.5 L 127.08998860776202 -0.5 L 106.38288492888101 -0.5 Z"/><text text-anchor="middle" pointer-events="none" font-size="8px" fill="#000000" x="76.04499430388101" y="3" font-family="sans-serif">ACCUSED_OF</text></g><g class="relationship" transform="translate(-495.71091340959913 -8.025728312814769) rotate(363.6645065386185)"><path class="outline" fill="#A5ABB6" stroke="none" d="M 25 0.5 L 44.45984658299869 0.5 L 44.45984658299869 -0.5 L 25 -0.5 Z M 105.1356278329987 0.5 L 124.59547441599739 0.5 L 124.59547441599739 3.5 L 131.5954744159974 0 L 124.59547441599739 -3.5 L 124.59547441599739 -0.5 L 105.1356278329987 -0.5 Z"/><text text-anchor="middle" pointer-events="none" font-size="8px" fill="#000000" x="74.7977372079987" y="3" font-family="sans-serif">ACCUSED_OF</text></g><g class="relationship" transform="translate(-378.2910058362046 -155.9844991353423) rotate(436.1812322987233)"><path class="outline" fill="#A5ABB6" stroke="none" d="M 25 0.5 L 47.500062991167425 0.5 L 47.500062991167425 -0.5 L 25 -0.5 Z M 108.17584424116743 0.5 L 130.67590723233485 0.5 L 130.67590723233485 3.5 L 137.67590723233485 0 L 130.67590723233485 -3.5 L 130.67590723233485 -0.5 L 108.17584424116743 -0.5 Z"/><text text-anchor="middle" pointer-events="none" font-size="8px" fill="#000000" x="77.83795361616743" y="3" font-family="sans-serif">ACCUSED_OF</text></g><g class="relationship" transform="translate(-469.7917581477096 88.10939864886325) rotate(326.54721076477483)"><path class="outline" fill="#A5ABB6" stroke="none" d="M 25 0.5 L 44.281397456633115 0.5 L 44.281397456633115 -0.5 L 25 -0.5 Z M 104.95717870663312 0.5 L 124.23857616326623 0.5 L 124.23857616326623 3.5 L 131.23857616326623 0 L 124.23857616326623 -3.5 L 124.23857616326623 -0.5 L 104.95717870663312 -0.5 Z"/><text text-anchor="middle" pointer-events="none" font-size="8px" fill="#000000" x="74.61928808163312" y="3" font-family="sans-serif">ACCUSED_OF</text></g><g class="relationship" transform="translate(-389.3682309755688 146.98298511021676) rotate(289.00179988962844)"><path class="outline" fill="#A5ABB6" stroke="none" d="M 25 0.5 L 42.84046630916822 0.5 L 42.84046630916822 -0.5 L 25 -0.5 Z M 103.51624755916822 0.5 L 121.35671386833644 0.5 L 121.35671386833644 3.5 L 128.35671386833644 0 L 121.35671386833644 -3.5 L 121.35671386833644 -0.5 L 103.51624755916822 -0.5 Z"/><text text-anchor="middle" pointer-events="none" font-size="8px" fill="#000000" x="73.17835693416822" y="3" font-family="sans-serif">ACCUSED_OF</text></g><g class="relationship" transform="translate(-279.5492678105393 -143.6393894840646) rotate(472.35463461751885)"><path class="outline" fill="#A5ABB6" stroke="none" d="M 25 0.5 L 44.88986007012714 0.5 L 44.88986007012714 -0.5 L 25 -0.5 Z M 105.56564132012714 0.5 L 125.45550139025428 0.5 L 125.45550139025428 3.5 L 132.45550139025428 0 L 125.45550139025428 -3.5 L 125.45550139025428 -0.5 L 105.56564132012714 -0.5 Z"/><text text-anchor="middle" pointer-events="none" font-size="8px" fill="#000000" x="75.22775069512714" y="3" transform="rotate(180 75.22775069512714 0)" font-family="sans-serif">ACCUSED_OF</text></g><g class="relationship" transform="translate(-302.674240742791 218.5573810737151) rotate(292.88058974126875)"><path class="outline" fill="#A5ABB6" stroke="none" d="M 25 0.5 L 50.79655632197374 0.5 L 50.79655632197374 -0.5 L 25 -0.5 Z M 111.47233757197374 0.5 L 137.26889389394748 0.5 L 137.26889389394748 3.5 L 144.26889389394748 0 L 137.26889389394748 -3.5 L 137.26889389394748 -0.5 L 111.47233757197374 -0.5 Z"/><text text-anchor="middle" pointer-events="none" font-size="8px" fill="#000000" x="81.13444694697374" y="3" font-family="sans-serif">ACCUSED_OF</text></g><g class="relationship" transform="translate(-203.4671332024578 227.32950034107282) rotate(258.54002240107667)"><path class="outline" fill="#A5ABB6" stroke="none" d="M 25 0.5 L 50.198715365012006 0.5 L 50.198715365012006 -0.5 L 25 -0.5 Z M 110.874496615012 0.5 L 136.073211980024 0.5 L 136.073211980024 3.5 L 143.073211980024 0 L 136.073211980024 -3.5 L 136.073211980024 -0.5 L 110.874496615012 -0.5 Z"/><text text-anchor="middle" pointer-events="none" font-size="8px" fill="#000000" x="80.536605990012" y="3" transform="rotate(180 80.536605990012 0)" font-family="sans-serif">ACCUSED_OF</text></g></g><g class="layer nodes"><g class="node" aria-label="graph-node2" transform="translate(-91.64116954198855,258.8854057427368)"><circle class="outline" cx="0" cy="0" r="25" fill="#D9C8AE" stroke="#c0a378" stroke-width="2px"/><text class="caption" text-anchor="middle" pointer-events="none" x="0" y="5" font-size="10px" fill="#2A2C34" font-family="sans-serif"> Titus</text></g><g class="node" aria-label="graph-node3" transform="translate(-153.7175598129937,88.93517892457737)"><circle class="outline" cx="0" cy="0" r="25" fill="#ECB5C9" stroke="#da7298" stroke-width="2px"/><text class="caption" text-anchor="middle" pointer-events="none" x="0" y="5" font-size="10px" fill="#2A2C34" font-family="sans-serif"> kidnappi…</text></g><g class="node" aria-label="graph-node4" transform="translate(23.124941418443115,250.0908347095589)"><circle class="outline" cx="0" cy="0" r="25" fill="#D9C8AE" stroke="#c0a378" stroke-width="2px"/><text class="caption" text-anchor="middle" pointer-events="none" x="0" y="5" font-size="10px" fill="#2A2C34" font-family="sans-serif"> Kharugas</text></g><g class="node" aria-label="graph-node5" transform="translate(-71.93059763016626,99.78491077419233)"><circle class="outline" cx="0" cy="0" r="25" fill="#ECB5C9" stroke="#da7298" stroke-width="2px"/><text class="caption" text-anchor="middle" pointer-events="none" x="0" y="5" font-size="10px" fill="#2A2C34" font-family="sans-serif"> murder</text></g><g class="node" aria-label="graph-node6" transform="translate(173.35989213142886,128.84586628699913)"><circle class="outline" cx="0" cy="0" r="25" fill="#D9C8AE" stroke="#c0a378" stroke-width="2px"/><text class="caption" text-anchor="middle" pointer-events="none" x="0" y="5" font-size="10px" fill="#2A2C34" font-family="sans-serif"> Eixab</text></g><g class="node" aria-label="graph-node7" transform="translate(7.234769768820172,58.899779822212935)"><circle class="outline" cx="0" cy="0" r="25" fill="#ECB5C9" stroke="#da7298" stroke-width="2px"/><text class="caption" text-anchor="middle" pointer-events="none" x="0" y="5" font-size="10px" fill="#2A2C34" font-family="sans-serif"> rape</text></g><g class="node" aria-label="graph-node8" transform="translate(82.55813853208842,170.284604531298)"><circle class="outline" cx="0" cy="0" r="25" fill="#D9C8AE" stroke="#c0a378" stroke-width="2px"/><text class="caption" text-anchor="middle" pointer-events="none" x="0" y="5" font-size="10px" fill="#2A2C34" font-family="sans-serif"> Nghipan…</text></g><g class="node" aria-label="graph-node9" transform="translate(194.78642734460848,31.973559086591607)"><circle class="outline" cx="0" cy="0" r="25" fill="#D9C8AE" stroke="#c0a378" stroke-width="2px"/><text class="caption" text-anchor="middle" pointer-events="none" x="0" y="5" font-size="10px" fill="#2A2C34" font-family="sans-serif"> Heibab</text></g><g class="node" aria-label="graph-node10" transform="translate(-65.9526525449996,-157.15416303568944)"><circle class="outline" cx="0" cy="0" r="25" fill="#D9C8AE" stroke="#c0a378" stroke-width="2px"/><text class="caption" text-anchor="middle" pointer-events="none" x="0" y="5" font-size="10px" fill="#2A2C34" font-family="sans-serif"> Stuurman</text></g><g class="node" aria-label="graph-node11" transform="translate(-156.9705990597239,6.269800489450745)"><circle class="outline" cx="0" cy="0" r="25" fill="#ECB5C9" stroke="#da7298" stroke-width="2px"/><text class="caption" text-anchor="middle" pointer-events="none" x="0" y="0" font-size="10px" fill="#2A2C34" font-family="sans-serif"> drug</text><text class="caption" text-anchor="middle" pointer-events="none" x="0" y="10" font-size="10px" fill="#2A2C34" font-family="sans-serif"> dealing</text></g><g class="node" aria-label="graph-node12" transform="translate(-175.94007894799253,-151.43473311159914)"><circle class="outline" cx="0" cy="0" r="25" fill="#D9C8AE" stroke="#c0a378" stroke-width="2px"/><text class="caption" text-anchor="middle" pointer-events="none" x="0" y="5" font-size="10px" fill="#2A2C34" font-family="sans-serif"> Haindon…</text></g><g class="node" aria-label="graph-node13" transform="translate(-239.77245013639737,-21.747045541001626)"><circle class="outline" cx="0" cy="0" r="25" fill="#ECB5C9" stroke="#da7298" stroke-width="2px"/><text class="caption" text-anchor="middle" pointer-events="none" x="0" y="5" font-size="10px" fill="#2A2C34" font-family="sans-serif"> fraud</text></g><g class="node" aria-label="graph-node14" transform="translate(98.68677407744761,-52.42994447863239)"><circle class="outline" cx="0" cy="0" r="25" fill="#D9C8AE" stroke="#c0a378" stroke-width="2px"/><text class="caption" text-anchor="middle" pointer-events="none" x="0" y="5" font-size="10px" fill="#2A2C34" font-family="sans-serif"> Samuels</text></g><g class="node" aria-label="graph-node15" transform="translate(-59.856598966148354,12.143294949359927)"><circle class="outline" cx="0" cy="0" r="25" fill="#ECB5C9" stroke="#da7298" stroke-width="2px"/><text class="caption" text-anchor="middle" pointer-events="none" x="0" y="5" font-size="10px" fill="#2A2C34" font-family="sans-serif"> assault</text></g><g class="node" aria-label="graph-node16" transform="translate(41.72599291973744,-133.9912455130961)"><circle class="outline" cx="0" cy="0" r="25" fill="#D9C8AE" stroke="#c0a378" stroke-width="2px"/><text class="caption" text-anchor="middle" pointer-events="none" x="0" y="5" font-size="10px" fill="#2A2C34" font-family="sans-serif"> Jonas</text></g><g class="node" aria-label="graph-node17" transform="translate(-460.7442535052947,-100.9434415357697)"><circle class="outline" cx="0" cy="0" r="25" fill="#D9C8AE" stroke="#c0a378" stroke-width="2px"/><text class="caption" text-anchor="middle" pointer-events="none" x="0" y="5" font-size="10px" fill="#2A2C34" font-family="sans-serif"> Hainduwa</text></g><g class="node" aria-label="graph-node18" transform="translate(-339.4356136115064,1.9829319665404626)"><circle class="outline" cx="0" cy="0" r="25" fill="#ECB5C9" stroke="#da7298" stroke-width="2px"/><text class="caption" text-anchor="middle" pointer-events="none" x="0" y="0" font-size="10px" fill="#2A2C34" font-family="sans-serif"> armed</text><text class="caption" text-anchor="middle" pointer-events="none" x="0" y="10" font-size="10px" fill="#2A2C34" font-family="sans-serif"> robbery</text></g><g class="node" aria-label="graph-node19" transform="translate(-495.71091340959913,-8.025728312814769)"><circle class="outline" cx="0" cy="0" r="25" fill="#D9C8AE" stroke="#c0a378" stroke-width="2px"/><text class="caption" text-anchor="middle" pointer-events="none" x="0" y="5" font-size="10px" fill="#2A2C34" font-family="sans-serif"> Tuhafeni</text></g><g class="node" aria-label="graph-node20" transform="translate(-378.2910058362046,-155.9844991353423)"><circle class="outline" cx="0" cy="0" r="25" fill="#D9C8AE" stroke="#c0a378" stroke-width="2px"/><text class="caption" text-anchor="middle" pointer-events="none" x="0" y="5" font-size="10px" fill="#2A2C34" font-family="sans-serif"> Kandjimi</text></g><g class="node" aria-label="graph-node21" transform="translate(-469.7917581477096,88.10939864886325)"><circle class="outline" cx="0" cy="0" r="25" fill="#D9C8AE" stroke="#c0a378" stroke-width="2px"/><text class="caption" text-anchor="middle" pointer-events="none" x="0" y="5" font-size="10px" fill="#2A2C34" font-family="sans-serif"> Naobeb</text></g><g class="node" aria-label="graph-node22" transform="translate(-389.3682309755688,146.98298511021676)"><circle class="outline" cx="0" cy="0" r="25" fill="#D9C8AE" stroke="#c0a378" stroke-width="2px"/><text class="caption" text-anchor="middle" pointer-events="none" x="0" y="5" font-size="10px" fill="#2A2C34" font-family="sans-serif"> Angula</text></g><g class="node" aria-label="graph-node23" transform="translate(-279.5492678105393,-143.6393894840646)"><circle class="outline" cx="0" cy="0" r="25" fill="#D9C8AE" stroke="#c0a378" stroke-width="2px"/><text class="caption" text-anchor="middle" pointer-events="none" x="0" y="5" font-size="10px" fill="#2A2C34" font-family="sans-serif"> Nangolo</text></g><g class="node" aria-label="graph-node24" transform="translate(-302.674240742791,218.5573810737151)"><circle class="outline" cx="0" cy="0" r="25" fill="#D9C8AE" stroke="#c0a378" stroke-width="2px"/><text class="caption" text-anchor="middle" pointer-events="none" x="0" y="5" font-size="10px" fill="#2A2C34" font-family="sans-serif"> Kambinda</text></g><g class="node" aria-label="graph-node25" transform="translate(-236.86048808972737,62.6070415364066)"><circle class="outline" cx="0" cy="0" r="25" fill="#ECB5C9" stroke="#da7298" stroke-width="2px"/><text class="caption" text-anchor="middle" pointer-events="none" x="0" y="5" font-size="10px" fill="#2A2C34" font-family="sans-serif"> theft</text></g><g class="node" aria-label="graph-node26" transform="translate(-203.4671332024578,227.32950034107282)"><circle class="outline" cx="0" cy="0" r="25" fill="#D9C8AE" stroke="#c0a378" stroke-width="2px"/><text class="caption" text-anchor="middle" pointer-events="none" x="0" y="5" font-size="10px" fill="#2A2C34" font-family="sans-serif"> Kandjimi</text></g></g></svg>